<!-- Generator: Adobe Illustrator 23.0.3, SVG Export Plug-In  -->
<svg version="1.1" xmlns="http://www.w3.org/2000/svg" xmlns:xlink="http://www.w3.org/1999/xlink" x="0px" y="0px"
	 width="101.88px" height="101.88px" viewBox="0 0 101.88 101.88" style="enable-background:new 0 0 101.88 101.88;"
	 xml:space="preserve">
<style type="text/css">
	.st0{fill:none;stroke:#000000;stroke-miterlimit:10;}
</style>
<defs>
</defs>
<path class="st0" d="M50.94,90.58c3.13,0,5.89-0.36,8.31-0.86c2.42-0.5,4.5-1.15,6.31-1.82c3.61-1.34,6.13-2.67,8.16-3.57
	c2.02-0.91,3.55-1.43,5.03-1.55c1.48-0.13,2.9,0.13,4.65,0.61c-0.47-1.75-0.73-3.17-0.61-4.65c0.12-1.48,0.63-3.01,1.55-5.03
	c0.9-2.02,2.23-4.55,3.57-8.16c0.66-1.81,1.31-3.89,1.82-6.31c0.5-2.42,0.86-5.18,0.86-8.31c6.26,1.55,9.36,4.71,10.38,8.43
	c0.52,1.85,0.52,3.83,0.19,5.8c-0.33,1.97-0.99,3.94-1.78,5.84c-0.79,1.9-1.6,3.51-2.31,5.03c-0.71,1.52-1.32,2.96-1.79,4.54
	c-0.47,1.58-0.79,3.3-1.02,5.4c-0.23,2.11-0.35,4.59-0.55,7.75c-3.15,0.2-5.65,0.31-7.77,0.53c-2.11,0.21-3.84,0.52-5.43,0.97
	c-1.59,0.45-3.03,1.04-4.56,1.73c-1.52,0.69-3.13,1.49-5.03,2.28c-1.89,0.79-3.85,1.45-5.81,1.8c-1.96,0.34-3.93,0.36-5.78-0.14
	C55.65,99.9,52.49,96.84,50.94,90.58z"/>
<path class="st0" d="M1,59.35c-0.5,1.85-0.48,3.82-0.14,5.78c0.34,1.96,1.01,3.92,1.8,5.81c0.79,1.9,1.59,3.5,2.28,5.03
	c0.69,1.53,1.28,2.97,1.73,4.56c0.45,1.59,0.76,3.32,0.97,5.43c0.22,2.11,0.33,4.61,0.53,7.77c3.15,0.2,5.64,0.32,7.75,0.55
	c2.1,0.22,3.82,0.55,5.4,1.02c1.58,0.47,3.01,1.08,4.54,1.79c1.52,0.71,3.13,1.52,5.03,2.31c1.9,0.79,3.86,1.45,5.84,1.78
	c1.97,0.33,3.95,0.33,5.8-0.19c3.72-1.03,6.88-4.13,8.43-10.38c-3.13,0-5.89-0.36-8.31-0.86c-2.42-0.5-4.5-1.15-6.31-1.82
	c-3.61-1.34-6.13-2.67-8.16-3.57c-2.02-0.91-3.55-1.43-5.03-1.55c-1.48-0.13-2.9,0.13-4.65,0.61c0.47-1.75,0.73-3.17,0.61-4.65
	c-0.12-1.48-0.63-3.01-1.55-5.03c-0.9-2.02-2.23-4.55-3.57-8.16c-0.66-1.81-1.31-3.89-1.82-6.31c-0.5-2.42-0.86-5.18-0.86-8.31
	C5.04,52.49,1.98,55.65,1,59.35z"/>
<path class="st0" d="M42.53,1c-1.85-0.5-3.82-0.48-5.78-0.14c-1.96,0.34-3.92,1.01-5.81,1.8c-1.9,0.79-3.5,1.58-5.03,2.28
	c-1.53,0.69-2.97,1.28-4.56,1.73c-1.59,0.45-3.32,0.76-5.43,0.97c-2.11,0.22-4.61,0.33-7.77,0.53c-0.2,3.15-0.32,5.64-0.55,7.75
	c-0.22,2.1-0.55,3.82-1.02,5.4c-0.47,1.58-1.08,3.01-1.79,4.54c-0.71,1.52-1.52,3.13-2.31,5.03c-0.79,1.9-1.45,3.86-1.78,5.84
	c-0.33,1.97-0.33,3.95,0.19,5.8c1.03,3.72,4.13,6.88,10.38,8.43c0-3.13,0.36-5.89,0.86-8.31c0.51-2.42,1.15-4.5,1.82-6.31
	c1.34-3.61,2.67-6.13,3.57-8.16c0.91-2.02,1.43-3.55,1.55-5.03c0.12-1.48-0.13-2.9-0.61-4.65c1.75,0.47,3.17,0.73,4.65,0.61
	c1.48-0.12,3.01-0.63,5.03-1.55c2.02-0.9,4.55-2.23,8.16-3.57c1.81-0.66,3.89-1.31,6.31-1.82c2.42-0.5,5.18-0.86,8.31-0.86
	C49.39,5.04,46.23,1.98,42.53,1z"/>
<path class="st0" d="M100.88,42.53c0.5-1.85,0.48-3.82,0.14-5.78c-0.34-1.96-1.01-3.92-1.8-5.81c-0.79-1.9-1.58-3.5-2.28-5.03
	c-0.69-1.53-1.28-2.97-1.73-4.56c-0.45-1.59-0.76-3.32-0.97-5.43c-0.22-2.11-0.33-4.61-0.53-7.77c-3.15-0.2-5.64-0.32-7.75-0.55
	c-2.1-0.22-3.82-0.55-5.4-1.02C79,6.13,77.56,5.52,76.04,4.81C74.52,4.1,72.91,3.29,71,2.5c-1.9-0.79-3.86-1.45-5.84-1.78
	c-1.97-0.33-3.95-0.33-5.8,0.19c-3.72,1.03-6.88,4.13-8.43,10.38c3.13,0,5.89,0.36,8.31,0.86c2.42,0.5,4.5,1.15,6.31,1.82
	c3.61,1.34,6.13,2.67,8.16,3.57c2.02,0.91,3.55,1.43,5.03,1.55c1.48,0.13,2.9-0.13,4.65-0.61c-0.47,1.75-0.73,3.17-0.61,4.65
	c0.12,1.48,0.63,3.01,1.55,5.03c0.9,2.03,2.23,4.55,3.57,8.16c0.66,1.81,1.31,3.89,1.82,6.31c0.5,2.42,0.86,5.18,0.86,8.31
	C96.84,49.39,99.9,46.23,100.88,42.53z"/>
<circle class="st0" cx="51.06" cy="51.02" r="36.93"/>
<path class="st0" d="M49.1,56.02l-6.92,9.01l-0.47,0.61l0.47,0.61l7.89,10.28l0.19,0.25l0.79,1.03l0.79-1.03l7.97-10.38l0.11-0.15
	l0.46-0.61l-0.46-0.6L39.51,38.45l-0.07-0.09l-0.3-0.39h-0.49H22.49h-2.03l1.24,1.61l16.35,21.29l0.79,1.03l0.79-1.03l0.71-0.93
	l0.47-0.61l-0.47-0.61L26.76,41.07l10.85,0l18.87,24.57l-5.43,7.07l-5.43-7.07l5.39-7.03L49.1,56.02z"/>
<polygon class="st0" points="79.62,37.96 63.46,37.96 62.97,37.96 62.67,38.35 51.02,53.43 52.98,55.98 64.5,41.07 75.35,41.07 
	61.77,58.74 61.33,59.3 61.72,59.9 62.37,60.87 63.14,62.05 64,60.93 80.42,39.57 81.65,37.96 "/>
</svg>
