<?xml version="1.0" encoding="utf-8"?>
<!-- Generator: Adobe Illustrator 23.0.1, SVG Export Plug-In . SVG Version: 6.00 Build 0)  -->
<svg version="1.1" id="Layer_1" xmlns="http://www.w3.org/2000/svg" xmlns:xlink="http://www.w3.org/1999/xlink" x="0px" y="0px"
	 viewBox="0 0 323.68 472.66" style="enable-background:new 0 0 323.68 472.66;" xml:space="preserve">
<style type="text/css">
	.st0{clip-path:url(#SVGID_2_);}
	.st1{clip-path:url(#SVGID_4_);}
	.st2{fill:#DC2328;}
	.st3{clip-path:url(#SVGID_6_);}
	.st4{fill:#8BD6F3;}
	.st5{fill:#FFFFFF;}
	.st6{fill:#A6874E;}
	.st7{clip-path:url(#SVGID_8_);}
	.st8{fill:#EDEFEF;}
	.st9{clip-path:url(#SVGID_10_);}
	.st10{clip-path:url(#SVGID_12_);}
</style>
<g>
	<g>
		<defs>
			<rect id="SVGID_1_" width="323.68" height="472.66"/>
		</defs>
		<clipPath id="SVGID_2_">
			<use xlink:href="#SVGID_1_"  style="overflow:visible;"/>
		</clipPath>
		<g class="st0">
			<defs>
				<rect id="SVGID_3_" width="323.68" height="472.66"/>
			</defs>
			<clipPath id="SVGID_4_">
				<use xlink:href="#SVGID_3_"  style="overflow:visible;"/>
			</clipPath>
			<g class="st1">
				<path d="M323.68,318.49c0,89.28-161.54,151.36-161.54,151.36S0,406.28,0,317.1V30.8C0,13.79,13.79,0,30.81,0h262.07
					c17.01,0,30.81,13.79,30.81,30.81V318.49z"/>
			</g>
			<g class="st1">
				<path class="st2" d="M161.41,459.66c0,0-150.98-58.94-150.98-142.64V32.27c0-12.06,9.78-21.84,21.84-21.84h259.13
					c12.06,0,21.84,9.78,21.84,21.84v286.21C313.25,402.12,161.41,459.66,161.41,459.66"/>
			</g>
		</g>
		<g class="st0">
			<defs>
				<path id="SVGID_5_" d="M33.63,17.05c-8.97,0-16.25,7.27-16.25,16.25v283.39c0,71.83,130.89,128.93,143.12,134.11
					c0.59,0.25,1.24,0.25,1.83,0.01c12.29-5.02,143.97-60.48,143.97-132.66V33.3c0-8.97-7.28-16.25-16.25-16.25H33.63z"/>
			</defs>
			<clipPath id="SVGID_6_">
				<use xlink:href="#SVGID_5_"  style="overflow:visible;"/>
			</clipPath>
			<g class="st3">
				<path class="st4" d="M161.26,506C48.08,505.65-42.91,403.54-42.91,279.6V-4.06C-42.91-18.94-31.9-31-18.31-31H342
					c13.58,0,24.59-48.52,24.59-33.65v346.41C366.59,405.62,274.42,506.34,161.26,506"/>
			</g>
			<g class="st3">
				<polygon class="st5" points="306.3,334.97 306.3,273.02 288.22,278.65 261.72,257.52 236.32,271.01 161.84,222.36 
					113.46,254.53 91.6,244.17 37.99,280.81 17.38,275.7 17.38,334.97 				"/>
			</g>
			<g class="st3">
				<polygon class="st6" points="288.22,278.65 261.72,257.52 236.32,271.01 161.84,222.36 113.46,254.53 91.6,244.17 37.99,280.81 
					17.38,275.7 17.38,282.23 17.71,282.19 30.84,285.04 32.78,298.29 92.53,255.52 97.39,264.74 104.93,264.18 103.19,271.73 
					107.53,280.06 161.84,233.1 161.84,250.21 170.7,246.52 161.84,271.73 170.7,278.55 189.82,271.73 227.2,288.23 261.68,264.07 
					260.23,275.7 265.44,279.73 253.56,293.37 276.45,289.79 284.86,296.06 306.3,286.66 306.3,273.02 				"/>
			</g>
			<g class="st3">
				<polygon class="st6" points="87.9,270.28 102.39,286.38 89.65,281.46 77.32,287.73 72.79,286.16 60.77,291.3 71.67,280.79 
					77.32,280.79 				"/>
			</g>
			<g class="st3">
				<polygon class="st6" points="156.91,262.52 152.46,271.73 165.48,280.79 151.09,278.05 132.18,286.87 				"/>
			</g>
			<g class="st3">
				<polygon class="st6" points="254.43,273.21 238.5,298.29 233.47,295.26 216.98,301.03 				"/>
			</g>
			<g class="st3">
				<polygon class="st6" points="19.8,285.94 27.71,288.12 29.24,300.03 				"/>
			</g>
			<g class="st3">
				<polygon class="st6" points="152.43,301.03 160.69,307.42 180.64,298.29 180.64,293.36 200.25,283.42 173.48,291.3 
					171.43,298.29 160.69,302.54 				"/>
			</g>
			<g class="st3">
				<path d="M41.1,321.68c0,0-7.64-0.42-9.72-2.13v11.06h-12.4c-1.05-5.4-1.59-10.92-1.59-16.55v-26.58
					c1.53-1.48,2.33-2.82,2.65-3.43c0.7-1.46,1.37-2.98,1.98-4.58c0.62,1.6,1.29,3.13,1.98,4.58c0.6,1.15,2.9,4.89,8.61,7.23
					c-0.29-0.03-2.67-0.27-5.15-0.96c4.31,6.9,8.58,10.98,8.58,10.98l-6.16-2.2c0,0,1.85,4.88,9.52,10.94l-7.28-1.64
					c0,0-0.23,2.16,8.06,7.49c0,0-5.08-0.03-7.23-1.05C32.94,314.83,34.19,319.26,41.1,321.68"/>
			</g>
			<g class="st3">
				<path d="M53.55,312.85c2.42,1.15,8.14,1.18,8.14,1.18c-9.32-5.99-9.07-8.42-9.07-8.42l8.19,1.85
					c-8.63-6.82-10.71-12.31-10.71-12.31l6.94,2.48c0,0-4.8-4.58-9.65-12.35c2.97,0.83,5.82,1.09,5.82,1.09
					c-6.43-2.62-9.04-6.85-9.71-8.14c-0.79-1.64-1.54-3.36-2.23-5.16c-0.69,1.8-1.44,3.52-2.23,5.16c-0.67,1.29-3.27,5.52-9.71,8.13
					c0,0,2.85-0.26,5.82-1.09c-4.85,7.77-9.65,12.35-9.65,12.35l6.94-2.48c0,0-2.08,5.49-10.71,12.31l8.19-1.85
					c0,0,0.25,2.43-9.07,8.42c0,0,5.72-0.03,8.14-1.18c0,0-1.41,4.99-9.18,7.71c0,0,8.59-0.48,10.94-2.4v12.44h10.53h10.53v-12.44
					c2.34,1.92,10.94,2.4,10.94,2.4C54.97,317.85,53.55,312.85,53.55,312.85"/>
			</g>
			<g class="st3">
				<path d="M104.75,314.83c2.15,1.03,7.24,1.05,7.24,1.05c-8.28-5.33-8.06-7.48-8.06-7.48l7.28,1.64
					c-7.67-6.06-9.52-10.94-9.52-10.94l6.17,2.2c0,0-4.26-4.07-8.58-10.98c2.64,0.74,5.17,0.97,5.17,0.97
					c-5.72-2.33-8.03-6.09-8.63-7.23c-0.7-1.46-1.37-2.98-1.98-4.58c-0.61,1.6-1.28,3.13-1.98,4.58c-0.6,1.15-2.91,4.9-8.63,7.23
					c0,0,2.53-0.23,5.17-0.97c-4.31,6.91-8.58,10.98-8.58,10.98l6.17-2.2c0,0-1.85,4.88-9.52,10.94l7.28-1.64
					c0,0,0.22,2.16-8.06,7.48c0,0,5.08-0.03,7.24-1.05c0,0-1.25,4.44-8.16,6.85c0,0,7.64-0.43,9.72-2.13v11.06h9.36h9.36v-11.06
					c2.08,1.71,9.72,2.13,9.72,2.13C106,319.26,104.75,314.83,104.75,314.83"/>
			</g>
			<g class="st3">
				<path d="M87.61,305.8c1.64,0.78,5.52,0.8,5.52,0.8c-6.31-4.06-6.14-5.7-6.14-5.7l5.55,1.25c-5.85-4.62-7.26-8.34-7.26-8.34
					l4.7,1.68c0,0-3.25-3.11-6.54-8.37c2.02,0.56,3.94,0.74,3.94,0.74c-4.36-1.77-6.12-4.64-6.58-5.51
					c-0.53-1.11-1.05-2.27-1.51-3.49c-0.47,1.22-0.98,2.38-1.51,3.49c-0.45,0.88-2.22,3.74-6.58,5.51c0,0,1.93-0.17,3.94-0.74
					c-3.29,5.26-6.54,8.37-6.54,8.37l4.7-1.68c0,0-1.41,3.72-7.26,8.34l5.55-1.25c0,0,0.17,1.64-6.14,5.7c0,0,3.88-0.02,5.52-0.8
					c0,0-0.96,3.38-6.22,5.22c0,0,5.82-0.32,7.41-1.62v8.43h7.13h7.13v-8.43c1.59,1.3,7.41,1.62,7.41,1.62
					C88.56,309.18,87.61,305.8,87.61,305.8"/>
			</g>
			<g class="st3">
				<path d="M73.14,310.49c2.74,1.31,9.23,1.34,9.23,1.34c-10.56-6.79-10.28-9.54-10.28-9.54l9.28,2.09
					c-9.78-7.73-12.14-13.95-12.14-13.95l7.86,2.81c0,0-5.44-5.2-10.94-14c3.37,0.94,6.59,1.23,6.59,1.23
					c-7.29-2.97-10.24-7.76-11-9.22c-0.89-1.86-1.75-3.8-2.53-5.84c-0.78,2.04-1.64,3.99-2.53,5.85c-0.76,1.46-3.71,6.25-11,9.22
					c0,0,3.22-0.29,6.59-1.23c-5.5,8.81-10.94,14-10.94,14l7.86-2.81c0,0-2.36,6.22-12.14,13.95l9.28-2.09c0,0,0.29,2.75-10.27,9.54
					c0,0,6.48-0.03,9.22-1.34c0,0-1.6,5.66-10.4,8.74c0,0,9.74-0.54,12.4-2.72v14.1h11.93h11.93v-14.1
					c2.66,2.17,12.4,2.72,12.4,2.72C74.74,316.14,73.14,310.49,73.14,310.49"/>
			</g>
			<g class="st3">
				<path d="M125.36,312.85c2.42,1.15,8.14,1.18,8.14,1.18c-9.32-5.99-9.07-8.42-9.07-8.42l8.19,1.85
					c-8.63-6.82-10.71-12.31-10.71-12.31l6.94,2.48c0,0-4.8-4.58-9.65-12.35c2.97,0.83,5.82,1.09,5.82,1.09
					c-6.43-2.62-9.04-6.85-9.71-8.14c-0.79-1.64-1.54-3.36-2.23-5.16c-0.69,1.8-1.44,3.52-2.23,5.16c-0.67,1.29-3.27,5.52-9.71,8.13
					c0,0,2.85-0.26,5.82-1.09c-4.85,7.77-9.65,12.35-9.65,12.35l6.94-2.48c0,0-2.08,5.49-10.71,12.31l8.19-1.85
					c0,0,0.25,2.43-9.07,8.42c0,0,5.72-0.03,8.14-1.18c0,0-1.41,4.99-9.17,7.71c0,0,8.59-0.48,10.94-2.4v12.44h10.53h10.53v-12.44
					c2.34,1.92,10.94,2.4,10.94,2.4C126.77,317.85,125.36,312.85,125.36,312.85"/>
			</g>
			<g class="st3">
				<path d="M176.55,314.83c2.15,1.03,7.24,1.05,7.24,1.05c-8.28-5.33-8.06-7.48-8.06-7.48l7.28,1.64
					c-7.67-6.06-9.52-10.94-9.52-10.94l6.17,2.2c0,0-4.26-4.07-8.58-10.98c2.64,0.74,5.17,0.97,5.17,0.97
					c-5.72-2.33-8.03-6.09-8.63-7.23c-0.7-1.46-1.37-2.98-1.98-4.58c-0.61,1.6-1.28,3.13-1.98,4.58c-0.6,1.15-2.91,4.9-8.63,7.23
					c0,0,2.53-0.23,5.17-0.97c-4.31,6.91-8.58,10.98-8.58,10.98l6.17-2.2c0,0-1.85,4.88-9.52,10.94l7.28-1.64
					c0,0,0.22,2.16-8.06,7.48c0,0,5.08-0.03,7.24-1.05c0,0-1.25,4.44-8.16,6.85c0,0,7.64-0.43,9.72-2.13v11.06h9.36h9.36v-11.06
					c2.09,1.71,9.72,2.13,9.72,2.13C177.81,319.26,176.55,314.83,176.55,314.83"/>
			</g>
			<g class="st3">
				<path d="M159.41,305.8c1.64,0.78,5.51,0.8,5.51,0.8c-6.31-4.06-6.14-5.7-6.14-5.7l5.55,1.25c-5.85-4.62-7.26-8.34-7.26-8.34
					l4.7,1.68c0,0-3.25-3.11-6.54-8.37c2.01,0.56,3.94,0.74,3.94,0.74c-4.36-1.77-6.12-4.64-6.58-5.51
					c-0.53-1.11-1.04-2.27-1.51-3.49c-0.47,1.22-0.98,2.38-1.51,3.49c-0.45,0.88-2.22,3.74-6.58,5.51c0,0,1.93-0.17,3.94-0.74
					c-3.29,5.26-6.54,8.37-6.54,8.37l4.7-1.68c0,0-1.41,3.72-7.26,8.34l5.55-1.25c0,0,0.17,1.64-6.14,5.7c0,0,3.88-0.02,5.52-0.8
					c0,0-0.96,3.38-6.22,5.22c0,0,5.82-0.32,7.41-1.62v8.43h7.13h7.13v-8.43c1.59,1.3,7.41,1.62,7.41,1.62
					C160.37,309.18,159.41,305.8,159.41,305.8"/>
			</g>
			<g class="st3">
				<path d="M144.94,310.49c2.74,1.31,9.22,1.34,9.22,1.34c-10.56-6.79-10.27-9.54-10.27-9.54l9.28,2.09
					c-9.78-7.73-12.14-13.95-12.14-13.95l7.86,2.81c0,0-5.43-5.2-10.94-14c3.37,0.94,6.59,1.23,6.59,1.23
					c-7.29-2.97-10.24-7.76-11-9.22c-0.89-1.86-1.75-3.8-2.53-5.84c-0.78,2.04-1.63,3.99-2.53,5.85c-0.76,1.46-3.71,6.25-11,9.22
					c0,0,3.22-0.29,6.59-1.23c-5.5,8.81-10.94,14-10.94,14l7.86-2.81c0,0-2.36,6.22-12.14,13.95l9.28-2.09c0,0,0.28,2.75-10.28,9.54
					c0,0,6.48-0.03,9.23-1.34c0,0-1.6,5.66-10.4,8.74c0,0,9.74-0.54,12.4-2.72v14.1h11.93h11.93v-14.1
					c2.66,2.17,12.4,2.72,12.4,2.72C146.54,316.14,144.94,310.49,144.94,310.49"/>
			</g>
			<g class="st3">
				<path d="M197.16,312.85c2.42,1.15,8.14,1.18,8.14,1.18c-9.32-5.99-9.07-8.42-9.07-8.42l8.19,1.85
					c-8.63-6.82-10.71-12.31-10.71-12.31l6.94,2.48c0,0-4.8-4.58-9.65-12.35c2.97,0.83,5.82,1.09,5.82,1.09
					c-6.43-2.62-9.04-6.85-9.71-8.14c-0.79-1.64-1.54-3.36-2.23-5.16c-0.69,1.8-1.44,3.52-2.23,5.16c-0.67,1.29-3.27,5.52-9.71,8.13
					c0,0,2.85-0.26,5.82-1.09c-4.85,7.77-9.65,12.35-9.65,12.35l6.94-2.48c0,0-2.08,5.49-10.71,12.31l8.18-1.85
					c0,0,0.25,2.43-9.07,8.42c0,0,5.72-0.03,8.14-1.18c0,0-1.41,4.99-9.18,7.71c0,0,8.59-0.48,10.94-2.4v12.44h10.53h10.53v-12.44
					c2.35,1.92,10.94,2.4,10.94,2.4C198.58,317.85,197.16,312.85,197.16,312.85"/>
			</g>
			<g class="st3">
				<path d="M248.36,314.83c2.15,1.03,7.24,1.05,7.24,1.05c-8.28-5.33-8.06-7.48-8.06-7.48l7.28,1.64
					c-7.67-6.06-9.52-10.94-9.52-10.94l6.17,2.2c0,0-4.26-4.07-8.58-10.98c2.64,0.74,5.17,0.97,5.17,0.97
					c-5.72-2.33-8.03-6.09-8.63-7.23c-0.7-1.46-1.37-2.98-1.98-4.58c-0.61,1.6-1.28,3.13-1.98,4.58c-0.6,1.15-2.91,4.9-8.63,7.23
					c0,0,2.53-0.23,5.17-0.97c-4.31,6.91-8.58,10.98-8.58,10.98l6.17-2.2c0,0-1.85,4.88-9.52,10.94l7.28-1.64
					c0,0,0.22,2.16-8.06,7.48c0,0,5.08-0.03,7.24-1.05c0,0-1.25,4.44-8.16,6.85c0,0,7.64-0.43,9.72-2.13v11.06h9.36h9.36v-11.06
					c2.09,1.71,9.72,2.13,9.72,2.13C249.61,319.26,248.36,314.83,248.36,314.83"/>
			</g>
			<g class="st3">
				<path d="M231.22,305.8c1.64,0.78,5.51,0.8,5.51,0.8c-6.31-4.06-6.14-5.7-6.14-5.7l5.55,1.25c-5.85-4.62-7.26-8.34-7.26-8.34
					l4.7,1.68c0,0-3.25-3.11-6.54-8.37c2.01,0.56,3.94,0.74,3.94,0.74c-4.36-1.77-6.12-4.64-6.58-5.51
					c-0.53-1.11-1.05-2.27-1.51-3.49c-0.47,1.22-0.98,2.38-1.51,3.49c-0.45,0.88-2.22,3.74-6.58,5.51c0,0,1.93-0.17,3.94-0.74
					c-3.29,5.26-6.54,8.37-6.54,8.37l4.7-1.68c0,0-1.41,3.72-7.26,8.34l5.55-1.25c0,0,0.17,1.64-6.14,5.7c0,0,3.87-0.02,5.51-0.8
					c0,0-0.96,3.38-6.22,5.22c0,0,5.82-0.32,7.41-1.62v8.43h7.13h7.13v-8.43c1.59,1.3,7.41,1.62,7.41,1.62
					C232.17,309.18,231.22,305.8,231.22,305.8"/>
			</g>
			<g class="st3">
				<path d="M216.75,310.49c2.74,1.31,9.23,1.34,9.23,1.34c-10.56-6.79-10.28-9.54-10.28-9.54l9.28,2.09
					c-9.78-7.73-12.14-13.95-12.14-13.95l7.86,2.81c0,0-5.44-5.2-10.94-14c3.37,0.94,6.59,1.23,6.59,1.23
					c-7.29-2.97-10.24-7.76-11-9.22c-0.89-1.86-1.75-3.8-2.53-5.84c-0.78,2.04-1.64,3.99-2.53,5.85c-0.76,1.46-3.71,6.25-11,9.22
					c0,0,3.22-0.29,6.59-1.23c-5.5,8.81-10.94,14-10.94,14l7.86-2.81c0,0-2.36,6.22-12.14,13.95l9.28-2.09c0,0,0.29,2.75-10.27,9.54
					c0,0,6.48-0.03,9.22-1.34c0,0-1.6,5.66-10.4,8.74c0,0,9.74-0.54,12.4-2.72v14.1h11.93h11.93v-14.1
					c2.66,2.17,12.4,2.72,12.4,2.72C218.35,316.14,216.75,310.49,216.75,310.49"/>
			</g>
			<g class="st3">
				<path d="M268.97,312.85c2.42,1.15,8.14,1.18,8.14,1.18c-9.32-5.99-9.07-8.42-9.07-8.42l8.18,1.85
					c-8.63-6.82-10.71-12.31-10.71-12.31l6.94,2.48c0,0-4.8-4.58-9.65-12.35c2.97,0.83,5.82,1.09,5.82,1.09
					c-6.44-2.62-9.04-6.85-9.71-8.14c-0.79-1.64-1.54-3.36-2.23-5.16c-0.69,1.8-1.44,3.52-2.23,5.16c-0.67,1.29-3.27,5.52-9.71,8.13
					c0,0,2.85-0.26,5.82-1.09c-4.85,7.77-9.65,12.35-9.65,12.35l6.94-2.48c0,0-2.08,5.49-10.71,12.31l8.18-1.85
					c0,0,0.25,2.43-9.07,8.42c0,0,5.72-0.03,8.14-1.18c0,0-1.41,4.99-9.18,7.71c0,0,8.59-0.48,10.94-2.4v12.44h10.53h10.53v-12.44
					c2.35,1.92,10.94,2.4,10.94,2.4C270.38,317.85,268.97,312.85,268.97,312.85"/>
			</g>
			<g class="st3">
				<path d="M302.39,300.89c0,0-0.13,1.23,3.9,4.17v1.42c-1.15-0.11-2.48-0.32-3.28-0.69c0,0,0.57,2.03,3.28,3.8v1.12
					c-1.69-0.24-3.64-0.66-4.47-1.33v8.43h-14.26v-8.43c-1.59,1.3-7.42,1.63-7.42,1.63c5.26-1.84,6.22-5.23,6.22-5.23
					c-1.63,0.78-5.51,0.81-5.51,0.81c6.31-4.07,6.14-5.71,6.14-5.71l-5.55,1.26c5.84-4.62,7.26-8.35,7.26-8.35l-4.69,1.68
					c0.19-0.19,3.35-3.27,6.53-8.37c-2.02,0.56-3.94,0.74-3.94,0.74c4.36-1.78,6.12-4.64,6.57-5.52c0.54-1.11,1.05-2.28,1.51-3.49
					c0.47,1.21,0.98,2.38,1.51,3.49c0.45,0.87,2.22,3.74,6.58,5.52c0,0-1.93-0.18-3.95-0.74c3.19,5.1,6.35,8.18,6.54,8.37
					l-4.69-1.68c0,0,1.14,3.01,5.61,6.97v1.01L302.39,300.89z"/>
			</g>
			<g class="st3">
				<path d="M288.55,310.49c2.74,1.31,9.22,1.34,9.22,1.34c-10.56-6.79-10.27-9.54-10.27-9.54l9.28,2.09
					c-9.78-7.73-12.14-13.95-12.14-13.95l7.86,2.81c0,0-5.43-5.2-10.94-14c3.37,0.94,6.59,1.23,6.59,1.23
					c-7.29-2.97-10.24-7.76-11-9.22c-0.89-1.86-1.75-3.8-2.53-5.84c-0.78,2.04-1.64,3.99-2.53,5.85c-0.76,1.46-3.71,6.25-11,9.22
					c0,0,3.22-0.29,6.6-1.23c-5.5,8.81-10.94,14-10.94,14l7.86-2.81c0,0-2.36,6.22-12.14,13.95l9.28-2.09c0,0,0.29,2.75-10.27,9.54
					c0,0,6.48-0.03,9.22-1.34c0,0-1.6,5.66-10.4,8.74c0,0,9.74-0.54,12.4-2.72v14.1h11.93h11.93v-14.1
					c2.66,2.17,12.4,2.72,12.4,2.72C290.15,316.14,288.55,310.49,288.55,310.49"/>
			</g>
			<g class="st3">
				<rect x="-24.4" y="298.74" width="373.56" height="110.65"/>
			</g>
			<g class="st3">
				<path class="st6" d="M-4.2,310.52c7.42-1.39,15.88-2.56,21.84,2.08c1.5,1.17,2.77,2.67,4.47,3.53c2.64,1.34,5.79,0.9,8.72,0.45
					c10.5-1.59,21.06-2.8,31.65-3.6c10.87-0.83,21.92-1.22,32.58,1.1c5.37,1.17,10.6,3.03,16.04,3.83
					c10.87,1.59,21.84-1.15,32.71-2.72c45.05-6.52,91.87,6.94,136.1-3.83c8.9-2.17,17.85-5.32,26.97-4.45
					c5.8,0.56,11.3,2.72,16.95,4.15c7.1,1.8,14.49,2.43,21.79,1.87c5.8-0.44,12.99-1.01,16.02,3.96c1.81,2.97,1.22,6.8,0.1,10.09
					c-2.3,6.75-6.63,12.79-12.29,17.14c-7.22,5.55-16.75,8.65-21.59,16.37c-3.77,6.02-4.16,14.16-9.47,18.87
					c-3.75,3.33-9.07,4.08-14.05,4.68c-12,1.46-24,2.93-36,4.39c-13.45,1.64-27.04,3.28-40.52,1.89
					c-10.69-1.1-21.09-4.09-31.69-5.88c-33.45-5.65-67.58,0.71-101.39,3.49c-30.59,2.52-62.64,1.81-90.2-11.71
					c-2.96-1.45-5.97-3.15-7.79-5.9c-1.5-2.27-2.03-5.04-2.49-7.72c-3.19-18.99-3.99-38.39-2.38-57.58"/>
			</g>
			<g class="st3">
				<path class="st4" d="M-18.71,365.11c28.49,3.12,53.12-21.82,81.72-23.69c4.49-0.29,10.27,1.05,10.93,5.5
					c-3.51-0.09-7.82,0.29-9.24,3.5c-1.22,2.73,0.73,6.08,3.47,7.29c2.74,1.21,5.91,0.78,8.79-0.04c7.06-2.02,13.3-6.21,20.19-8.75
					c6.89-2.54,15.3-3.15,20.98,1.5c-2.86-3.08-8.71,0.8-8.05,4.95c0.66,4.15,5.46,6.56,9.64,6.16c4.18-0.4,7.87-2.8,11.43-5.03
					c4.18-2.62,8.6-5.16,13.48-5.86c4.89-0.71,10.39,0.8,13.18,4.88c-2.89-2.7-7.47,2.72-5.46,6.13c2.01,3.4,6.7,3.93,10.63,3.49
					c14.08-1.58,26.14-10.36,39.11-16.07c12.97-5.71,29.94-7.66,39.81,2.52c-3.64-3.78-10.79,1.32-9.83,6.47
					c0.96,5.15,6.85,8.05,12.09,7.85s10.09-2.61,15.06-4.3c4.96-1.69,10.69-2.61,15.25-0.02c-3.75,1.69-3.25,7.83,0.15,10.14
					c3.4,2.31,8.03,1.63,11.82,0.02c4.86-2.07,9.06-5.45,13.89-7.57c4.84-2.12,10.92-2.73,15.04,0.58c3.32,2.67,4.5,7.13,5.35,11.3
					c5.86,28.52,5.58,58.29-0.81,86.7c-2.89,12.82-7.28,25.86-16.45,35.28c-5.09,5.23-11.41,9.09-17.9,12.42
					c-14.79,7.59-30.72,12.66-46.68,17.28c-24.04,6.97-48.81,13.05-73.8,11.65c-28.25-1.59-55.33-12.77-79.03-28.23
					c-23.7-15.46-44.33-35.12-64.25-55.23c-10.68-10.79-21.38-21.99-28.02-35.65c-8.14-16.77-9.54-35.89-10.8-54.49"/>
			</g>
		</g>
		<g class="st0">
			<defs>
				<rect id="SVGID_7_" width="323.68" height="472.66"/>
			</defs>
			<clipPath id="SVGID_8_">
				<use xlink:href="#SVGID_7_"  style="overflow:visible;"/>
			</clipPath>
			<g class="st7">
				<path d="M205.13,199.77c0,23.29-18.88,42.17-42.17,42.17c-23.29,0-42.17-18.88-42.17-42.17s18.88-42.17,42.17-42.17
					C186.25,157.6,205.13,176.48,205.13,199.77"/>
			</g>
			<g class="st7">
				<path class="st2" d="M200.2,199.77c0,20.57-16.67,37.24-37.24,37.24c-20.57,0-37.24-16.67-37.24-37.24
					c0-20.57,16.67-37.24,37.24-37.24C183.53,162.52,200.2,179.2,200.2,199.77"/>
			</g>
			<g class="st7">
				<path class="st8" d="M196.3,199.77c0,18.41-14.93,33.34-33.34,33.34c-18.41,0-33.34-14.93-33.34-33.34s14.93-33.34,33.34-33.34
					C181.37,166.43,196.3,181.35,196.3,199.77"/>
			</g>
			<g class="st7">
				<polygon class="st2" points="161.04,166.43 162.96,170.04 164.88,166.43 				"/>
			</g>
			<g class="st7">
				<polygon class="st2" points="164.88,233.11 162.96,229.49 161.04,233.11 				"/>
			</g>
			<g class="st7">
				<polygon class="st2" points="196.3,197.85 192.69,199.77 196.3,201.68 				"/>
			</g>
			<g class="st7">
				<polygon class="st2" points="129.62,201.68 133.23,199.77 129.62,197.85 				"/>
			</g>
			<g class="st7">
				<polygon points="180.71,182.02 162.96,194.91 165.39,197.34 				"/>
			</g>
			<g class="st7">
				<polygon points="160.36,202.37 157.92,199.94 145.21,217.52 				"/>
			</g>
			<g class="st7">
				<polygon points="180.71,182.02 167.82,199.77 165.38,197.34 				"/>
			</g>
			<g class="st7">
				<polygon points="160.35,202.37 162.78,204.8 145.21,217.51 				"/>
			</g>
			<g class="st7">
				<polygon points="180.71,217.52 167.82,199.76 165.38,202.19 				"/>
			</g>
			<g class="st7">
				<polygon points="160.35,197.16 162.78,194.73 145.21,182.02 				"/>
			</g>
			<g class="st7">
				<polygon points="180.71,217.51 162.96,204.62 165.39,202.19 				"/>
			</g>
			<g class="st7">
				<polygon points="160.36,197.16 157.92,199.59 145.21,182.02 				"/>
			</g>
			<g class="st7">
				<polygon class="st6" points="191.14,199.77 166.39,191.89 166.39,199.77 				"/>
			</g>
			<g class="st7">
				<polygon points="159.28,199.77 159.28,191.89 134.77,199.77 				"/>
			</g>
			<g class="st7">
				<polygon points="191.14,199.76 166.39,207.64 166.39,199.76 				"/>
			</g>
			<g class="st7">
				<polygon class="st6" points="159.28,199.76 159.28,207.64 134.77,199.76 				"/>
			</g>
			<g class="st7">
				<polygon class="st6" points="162.97,171.58 155.09,196.34 162.97,196.34 				"/>
			</g>
			<g class="st7">
				<polygon points="162.97,203.45 155.09,203.45 162.97,227.95 				"/>
			</g>
			<g class="st7">
				<polygon points="162.95,171.58 170.83,196.34 162.95,196.34 				"/>
			</g>
			<g class="st7">
				<polygon class="st6" points="162.95,203.45 170.83,203.45 162.95,227.95 				"/>
			</g>
			<g class="st7">
				<path class="st2" d="M172.55,199.77c0,5.3-4.29,9.59-9.59,9.59c-5.3,0-9.59-4.29-9.59-9.59c0-5.3,4.29-9.59,9.59-9.59
					C168.26,190.18,172.55,194.47,172.55,199.77"/>
			</g>
			<g class="st7">
				<path class="st8" d="M168.42,199.77c0,3.01-2.44,5.46-5.46,5.46c-3.01,0-5.46-2.44-5.46-5.46c0-3.01,2.44-5.46,5.46-5.46
					C165.97,194.31,168.42,196.75,168.42,199.77"/>
			</g>
			<g class="st7">
				<polygon class="st6" points="192.69,199.77 166.58,191.46 166.58,199.77 				"/>
			</g>
			<g class="st7">
				<polygon points="159.07,199.77 159.07,191.46 133.23,199.77 				"/>
			</g>
			<g class="st7">
				<polygon points="192.69,199.76 166.58,208.07 166.58,199.76 				"/>
			</g>
			<g class="st7">
				<polygon class="st6" points="159.07,199.76 159.07,208.07 133.23,199.76 				"/>
			</g>
			<g class="st7">
				<polygon class="st6" points="162.97,170.04 154.66,196.15 162.97,196.15 				"/>
			</g>
			<g class="st7">
				<polygon points="162.97,203.65 154.66,203.65 162.97,229.49 				"/>
			</g>
			<g class="st7">
				<polygon points="162.95,170.04 171.26,196.15 162.95,196.15 				"/>
			</g>
			<g class="st7">
				<polygon class="st6" points="162.95,203.65 171.26,203.65 162.95,229.49 				"/>
			</g>
			<g class="st7">
				<path d="M172.55,199.77c0,5.3-4.29,9.59-9.59,9.59c-5.3,0-9.59-4.29-9.59-9.59c0-5.3,4.29-9.59,9.59-9.59
					C168.26,190.18,172.55,194.47,172.55,199.77"/>
			</g>
			<g class="st7">
				<path class="st2" d="M168.42,199.77c0,3.01-2.44,5.46-5.46,5.46c-3.01,0-5.46-2.44-5.46-5.46c0-3.01,2.44-5.46,5.46-5.46
					C165.97,194.31,168.42,196.75,168.42,199.77"/>
			</g>
			<g class="st7">
				<path class="st6" d="M109.72,202.21H51.53c-1.29,0-2.33-1.04-2.33-2.33s1.04-2.33,2.33-2.33h58.18c1.29,0,2.33,1.04,2.33,2.33
					S111,202.21,109.72,202.21z"/>
			</g>
			<g class="st7">
				<path class="st6" d="M37.16,201.99H25.63c-1.29,0-2.33-1.04-2.33-2.33s1.04-2.33,2.33-2.33h11.53c1.29,0,2.33,1.04,2.33,2.33
					S38.44,201.99,37.16,201.99z"/>
			</g>
			<g class="st7">
				<path class="st6" d="M31.41,237.54c-1.03,0-1.97-0.69-2.25-1.73c-0.33-1.24,0.4-2.52,1.65-2.85l56.2-15.06
					c1.25-0.33,2.52,0.4,2.85,1.65c0.33,1.24-0.4,2.52-1.65,2.85l-56.2,15.06C31.81,237.52,31.61,237.54,31.41,237.54z"/>
			</g>
			<g class="st7">
				<path class="st6" d="M101.44,218.55c-1.03,0-1.97-0.69-2.25-1.73c-0.33-1.24,0.4-2.52,1.65-2.85l11.14-2.98
					c1.24-0.33,2.52,0.4,2.85,1.65c0.33,1.24-0.4,2.52-1.65,2.85l-11.14,2.98C101.84,218.52,101.64,218.55,101.44,218.55z"/>
			</g>
			<g class="st7">
				<path class="st6" d="M87.33,182.25c-0.2,0-0.4-0.03-0.6-0.08l-56.2-15.06c-1.24-0.33-1.98-1.61-1.65-2.85s1.61-1.98,2.85-1.65
					l56.2,15.06c1.24,0.33,1.98,1.61,1.65,2.85C89.3,181.57,88.36,182.25,87.33,182.25z"/>
			</g>
			<g class="st7">
				<path class="st6" d="M112.41,188.75c-0.2,0-0.4-0.03-0.6-0.08l-11.14-2.98c-1.24-0.33-1.98-1.61-1.65-2.85
					c0.33-1.24,1.61-1.98,2.85-1.65l11.14,2.98c1.24,0.33,1.98,1.61,1.65,2.85C114.39,188.06,113.44,188.75,112.41,188.75z"/>
			</g>
			<g class="st7">
				<path class="st6" d="M107.21,147.28c-0.6,0-1.19-0.23-1.65-0.68l-41.14-41.14c-0.91-0.91-0.91-2.39,0-3.29
					c0.91-0.91,2.38-0.91,3.29,0l41.14,41.14c0.91,0.91,0.91,2.39,0,3.29C108.4,147.05,107.81,147.28,107.21,147.28z"/>
			</g>
			<g class="st7">
				<path class="st6" d="M125.68,165.44c-0.6,0-1.19-0.23-1.65-0.68l-8.15-8.15c-0.91-0.91-0.91-2.39,0-3.3
					c0.91-0.91,2.39-0.91,3.3,0l8.15,8.15c0.91,0.91,0.91,2.39,0,3.3C126.87,165.21,126.28,165.44,125.68,165.44z"/>
			</g>
			<g class="st7">
				<path class="st6" d="M141.91,126.92c-1.03,0-1.97-0.69-2.25-1.73l-9.79-36.53c-0.33-1.24,0.4-2.52,1.65-2.85
					c1.24-0.33,2.52,0.4,2.85,1.65l9.79,36.53c0.33,1.24-0.4,2.52-1.65,2.85C142.31,126.9,142.11,126.92,141.91,126.92z"/>
			</g>
			<g class="st7">
				<path class="st6" d="M148.82,151.89c-1.03,0-1.97-0.69-2.25-1.73l-2.98-11.14c-0.33-1.24,0.4-2.52,1.65-2.85
					c1.24-0.33,2.52,0.4,2.85,1.65l2.98,11.14c0.33,1.24-0.4,2.52-1.65,2.85C149.23,151.86,149.02,151.89,148.82,151.89z"/>
			</g>
			<g class="st7">
				<path class="st6" d="M182.14,126.65c-0.2,0-0.4-0.03-0.6-0.08c-1.24-0.33-1.98-1.61-1.65-2.85l11.44-42.71
					c0.33-1.24,1.61-1.98,2.85-1.65c1.24,0.33,1.98,1.61,1.65,2.85l-11.44,42.71C184.11,125.96,183.17,126.65,182.14,126.65z"/>
			</g>
			<g class="st7">
				<path class="st6" d="M175.65,151.73c-0.2,0-0.4-0.03-0.6-0.08c-1.24-0.33-1.98-1.61-1.65-2.85l2.98-11.14
					c0.33-1.24,1.62-1.98,2.85-1.65c1.24,0.33,1.98,1.61,1.65,2.85L177.9,150C177.62,151.04,176.68,151.73,175.65,151.73z"/>
			</g>
			<g class="st7">
				<path class="st6" d="M217.12,146.52c-0.6,0-1.19-0.23-1.65-0.68c-0.91-0.91-0.91-2.39,0-3.29l41.14-41.14
					c0.91-0.91,2.38-0.91,3.29,0c0.91,0.91,0.91,2.39,0,3.29l-41.14,41.14C218.31,146.29,217.71,146.52,217.12,146.52z"/>
			</g>
			<g class="st7">
				<path class="st6" d="M198.95,164.99c-0.6,0-1.19-0.23-1.65-0.68c-0.91-0.91-0.91-2.39,0-3.29l8.15-8.15
					c0.91-0.91,2.38-0.91,3.29,0c0.91,0.91,0.91,2.39,0,3.29l-8.15,8.15C200.14,164.77,199.55,164.99,198.95,164.99z"/>
			</g>
			<g class="st7">
				<path class="st6" d="M237.47,181.22c-1.03,0-1.97-0.69-2.25-1.73c-0.33-1.24,0.41-2.52,1.65-2.85l56.2-15.06
					c1.25-0.33,2.52,0.4,2.85,1.65c0.33,1.24-0.41,2.52-1.65,2.85l-56.2,15.06C237.87,181.2,237.67,181.22,237.47,181.22z"/>
			</g>
			<g class="st7">
				<path class="st6" d="M212.5,188.14c-1.03,0-1.97-0.69-2.25-1.73c-0.33-1.24,0.41-2.52,1.65-2.85l11.14-2.98
					c1.25-0.33,2.52,0.4,2.85,1.65s-0.41,2.52-1.65,2.85l-11.14,2.98C212.9,188.11,212.7,188.14,212.5,188.14z"/>
			</g>
			<g class="st7">
				<path class="st6" d="M293.95,236.51c-0.2,0-0.4-0.03-0.61-0.08l-56.2-15.06c-1.24-0.33-1.98-1.61-1.65-2.85
					c0.33-1.24,1.61-1.98,2.85-1.65l56.2,15.06c1.24,0.33,1.98,1.61,1.65,2.85C295.92,235.82,294.98,236.51,293.95,236.51z"/>
			</g>
			<g class="st7">
				<path class="st6" d="M223.8,217.94c-0.2,0-0.4-0.03-0.6-0.08l-11.14-2.98c-1.24-0.33-1.98-1.61-1.65-2.85
					c0.33-1.24,1.61-1.98,2.85-1.65l11.14,2.98c1.24,0.33,1.98,1.61,1.65,2.85C225.77,217.26,224.83,217.94,223.8,217.94z"/>
			</g>
			<g class="st7">
				<path class="st6" d="M116.68,175.52c-0.4,0-0.8-0.1-1.16-0.31l-50.39-29.09c-1.11-0.64-1.5-2.07-0.85-3.18
					c0.64-1.11,2.07-1.49,3.18-0.85l50.39,29.09c1.11,0.64,1.5,2.07,0.85,3.18C118.26,175.1,117.48,175.52,116.68,175.52z"/>
			</g>
			<g class="st7">
				<path class="st6" d="M53.95,139.05c-0.4,0-0.8-0.1-1.16-0.31l-9.98-5.76c-1.11-0.64-1.5-2.07-0.85-3.18
					c0.64-1.11,2.07-1.49,3.18-0.85l9.98,5.76c1.11,0.64,1.5,2.07,0.85,3.18C55.53,138.63,54.75,139.05,53.95,139.05z"/>
			</g>
			<g class="st7">
				<path class="st6" d="M136.05,155.89c-0.81,0-1.59-0.42-2.02-1.17l-29.09-50.39c-0.64-1.11-0.26-2.54,0.85-3.18
					c1.11-0.64,2.54-0.26,3.18,0.85l29.09,50.39c0.64,1.11,0.26,2.54-0.85,3.18C136.85,155.79,136.45,155.89,136.05,155.89z"/>
			</g>
			<g class="st7">
				<path class="st6" d="M99.96,92.94c-0.81,0-1.59-0.42-2.02-1.17l-5.76-9.98c-0.64-1.11-0.26-2.54,0.85-3.18
					c1.11-0.64,2.54-0.26,3.18,0.85l5.76,9.98c0.64,1.11,0.26,2.54-0.85,3.18C100.76,92.84,100.36,92.94,99.96,92.94z"/>
			</g>
			<g class="st7">
				<path class="st6" d="M162.64,148.57c-1.29,0-2.33-1.04-2.33-2.33V88.06c0-1.29,1.04-2.33,2.33-2.33s2.33,1.04,2.33,2.33v58.18
					C164.97,147.53,163.93,148.57,162.64,148.57z"/>
			</g>
			<g class="st7">
				<path class="st6" d="M189.33,155.54c-0.4,0-0.8-0.1-1.16-0.31c-1.11-0.64-1.5-2.07-0.85-3.18l29.09-50.39
					c0.64-1.12,2.07-1.49,3.18-0.85c1.11,0.64,1.5,2.07,0.85,3.18l-29.09,50.39C190.92,155.12,190.13,155.54,189.33,155.54z"/>
			</g>
			<g class="st7">
				<path class="st6" d="M225.8,92.81c-0.4,0-0.8-0.1-1.16-0.31c-1.11-0.64-1.5-2.07-0.85-3.18l5.76-9.98
					c0.64-1.11,2.07-1.49,3.18-0.85c1.11,0.64,1.5,2.07,0.85,3.18l-5.76,9.98C227.38,92.39,226.6,92.81,225.8,92.81z"/>
			</g>
			<g class="st7">
				<path class="st6" d="M208.96,174.91c-0.8,0-1.59-0.42-2.02-1.17c-0.64-1.11-0.26-2.54,0.85-3.18l50.39-29.09
					c1.11-0.64,2.54-0.26,3.18,0.85c0.64,1.11,0.26,2.54-0.85,3.18l-50.39,29.09C209.76,174.81,209.36,174.91,208.96,174.91z"/>
			</g>
			<g class="st7">
				<path class="st6" d="M271.91,138.82c-0.8,0-1.59-0.42-2.02-1.17c-0.64-1.11-0.26-2.54,0.85-3.18l9.98-5.77
					c1.11-0.64,2.54-0.26,3.18,0.85c0.64,1.11,0.26,2.54-0.85,3.18l-9.98,5.77C272.71,138.72,272.31,138.82,271.91,138.82z"/>
			</g>
			<g class="st7">
				<path class="st6" d="M274.46,201.5h-58.18c-1.29,0-2.33-1.04-2.33-2.33s1.04-2.33,2.33-2.33h58.18c1.29,0,2.33,1.04,2.33,2.33
					S275.75,201.5,274.46,201.5z"/>
			</g>
			<g class="st7">
				<path class="st6" d="M300.36,201.72h-11.53c-1.29,0-2.33-1.04-2.33-2.33s1.04-2.33,2.33-2.33h11.53c1.29,0,2.33,1.04,2.33,2.33
					S301.65,201.72,300.36,201.72z"/>
			</g>
		</g>
		<g class="st0">
			<rect x="17.38" y="74.74" class="st4" width="288.91" height="54.24"/>
		</g>
		<g class="st0">
			<rect y="69.92" width="323.68" height="54.24"/>
		</g>
		<g class="st0">
			<path class="st5" d="M38.62,90.1v2.06h-3.14V90.1c0-0.22-0.18-0.4-0.4-0.4h-9.64v13.72h5.71v3.14H16.55v-3.14h5.74V89.7h-9.64
				c-0.22,0-0.4,0.18-0.4,0.4v2.06H9.08V90.1c0-1.95,1.63-3.58,3.58-3.58h22.43C37.03,86.52,38.62,88.15,38.62,90.1z"/>
			<path class="st5" d="M80.84,104.47c-1.99,1.23-4.33,2.53-6.79,2.53c-2.35,0-4.23-1.37-5.85-3.83l-2.56-3.83H52.96v4.08h8.81v3.14
				H43.68v-3.14h6.14V89.7h-6.14v-3.18h27.74c3.03,0,5.38,2.35,5.38,5.31v2.09c0,3-2.42,5.42-5.38,5.42h-1.99l1.44,2.35
				c1.23,1.48,1.88,2.13,3.21,2.13c1.26,0,2.85-0.69,5.13-2.06L80.84,104.47z M52.96,96.16h18.46c1.23,0,2.24-0.98,2.24-2.24v-2.09
				c0-1.19-1.01-2.13-2.24-2.13H52.96V96.16z"/>
			<path class="st5" d="M94.42,106.57c-4.41,0-8.13-3.86-8.13-8.45v-3.47c0-4.48,3.65-8.13,8.13-8.13h14.12
				c4.51,0,8.16,3.65,8.16,8.13v3.47c0,4.59-3.72,8.45-8.16,8.45H94.42z M94.42,89.66c-2.75,0-4.98,2.24-4.98,4.98v3.47
				c0,2.82,2.35,5.27,4.98,5.27h14.12c2.67,0,4.98-2.46,4.98-5.27v-3.47c0-2.74-2.24-4.98-4.98-4.98H94.42z"/>
			<path class="st5" d="M130.53,106.57c-4.41,0-8.13-3.86-8.13-8.45v-3.47c0-4.48,3.65-8.13,8.13-8.13h14.12
				c4.51,0,8.16,3.65,8.16,8.13v3.47c0,4.59-3.72,8.45-8.16,8.45H130.53z M130.53,89.66c-2.75,0-4.98,2.24-4.98,4.98v3.47
				c0,2.82,2.35,5.27,4.98,5.27h14.12c2.67,0,4.98-2.46,4.98-5.27v-3.47c0-2.74-2.24-4.98-4.98-4.98H130.53z"/>
			<path class="st5" d="M191.64,91.94v2.13c0,2.96-2.42,5.38-5.38,5.38H167.8v3.97h8.81v3.14h-18.1v-3.14h6.14V89.7h-6.14v-3.18
				h27.74C189.22,86.52,191.64,88.98,191.64,91.94z M188.5,91.94c0-1.23-1.01-2.24-2.24-2.24H167.8v6.61h18.46
				c1.23,0,2.24-1.01,2.24-2.24V91.94z"/>
			<path class="st5" d="M215.37,106.57v-5.67l1.05-0.4c0.14-0.04,14.12-5.02,16.54-6.03c2.6-1.08,2.85-1.41,2.85-2.38v-0.14
				c0-1.23-1.01-2.24-2.24-2.24h-14.66c-0.22,0-0.4,0.18-0.4,0.4v2.06h-3.14V90.1c0-1.99,1.59-3.58,3.54-3.58h14.66
				c3,0,5.42,2.42,5.42,5.42v0.14c0,3.29-2.46,4.3-4.8,5.27c-2.13,0.9-12.32,4.55-15.67,5.74v0.29h16.5c0.22,0,0.36-0.14,0.36-0.4
				v-2.06h3.18v2.06c0,1.99-1.59,3.58-3.58,3.58H215.37z"/>
			<path class="st5" d="M261.99,103.39v3.18h-17.05v-3.18h6.86V90.49c-1.73,0.61-4.01,1.34-5.27,1.34v-3.18
				c1.01,0,4.33-1.37,6.25-2.13h2.2v16.87H261.99z"/>
			<path class="st5" d="M285.04,103.39v3.18h-17.05v-3.18h6.86V90.49c-1.73,0.61-4.01,1.34-5.27,1.34v-3.18
				c1.01,0,4.33-1.37,6.25-2.13h2.2v16.87H285.04z"/>
			<path class="st5" d="M314.25,93.38v7.69c0,2.96-2.46,5.49-5.38,5.49c-13.91,0-13.91,0-13.91,0c-1.99,0-3.58-1.59-3.58-3.58v-2.06
				h3.14v2.06c0,0.25,0.18,0.4,0.4,0.4h13.94c1.19,0,2.24-1.05,2.24-2.31V99.2c-1.12,0.72-2.42,1.16-3.83,1.16h-9.61
				c-3.86,0-7.01-3.14-7.01-6.97c0-3.86,3.07-6.86,7.01-6.86h9.61C311.18,86.52,314.25,89.52,314.25,93.38z M311.11,93.38
				c0-2.06-1.7-3.68-3.83-3.68h-9.61c-2.17,0-3.83,1.62-3.83,3.68c0,2.1,1.7,3.83,3.83,3.83h9.61
				C309.38,97.21,311.11,95.48,311.11,93.38z"/>
		</g>
		<g class="st0">
			<defs>
				<rect id="SVGID_9_" width="323.68" height="472.66"/>
			</defs>
			<clipPath id="SVGID_10_">
				<use xlink:href="#SVGID_9_"  style="overflow:visible;"/>
			</clipPath>
			<g class="st9">
				<path class="st5" d="M266.6,470.02c-9.35-2.95-18.91-5.53-28.47-7.68l7.53-34.34c10.64,2.39,21.28,5.26,31.69,8.55
					c-4.28,4.49-8.5,9.1-12.57,13.72l-0.57,0.64l0.12,0.85C265.21,457.83,265.97,463.95,266.6,470.02"/>
			</g>
			<g class="st9">
				<path class="st6" d="M247.08,430.23c9.01,2.07,18.01,4.48,26.86,7.21c-3.59,3.82-7.13,7.7-10.56,11.6l-1.14,1.29l0.25,1.7
					c0.73,5.1,1.39,10.24,1.95,15.36c-7.94-2.44-16.01-4.6-24.1-6.47L247.08,430.23 M244.24,425.77
					c-2.78,12.66-5.55,25.32-8.33,37.98c11.05,2.42,22,5.39,32.83,8.91c-0.69-7.04-1.55-14.1-2.56-21.16
					c4.72-5.36,9.58-10.63,14.58-15.82C268.72,431.77,256.53,428.46,244.24,425.77"/>
			</g>
			<g class="st9">
				<path class="st5" d="M57.08,470.02c0.64-6.07,1.4-12.2,2.27-18.25l0.12-0.85l-0.57-0.64c-4.07-4.62-8.29-9.23-12.57-13.72
					c10.41-3.29,21.05-6.16,31.69-8.55l7.53,34.34C75.99,464.49,66.43,467.06,57.08,470.02"/>
			</g>
			<g class="st9">
				<path class="st6" d="M76.6,430.23l1.44,6.58l5.29,24.12c-8.08,1.86-16.16,4.03-24.1,6.47c0.57-5.12,1.22-10.27,1.95-15.36
					l0.24-1.7l-1.14-1.29c-3.43-3.9-6.97-7.79-10.56-11.6C58.59,434.71,67.59,432.3,76.6,430.23 M79.44,425.77
					c-12.29,2.69-24.48,6-36.52,9.91c5,5.19,9.86,10.46,14.58,15.82c-1.01,7.06-1.87,14.12-2.56,21.16
					c10.83-3.52,21.78-6.49,32.83-8.91L79.44,425.77z"/>
			</g>
			<g class="st9">
				<polygon class="st6" points="87.77,463.75 68.79,452.79 84.54,449.01 				"/>
			</g>
			<g class="st9">
				<polygon class="st6" points="235.91,463.75 254.89,452.79 239.14,449.01 				"/>
			</g>
			<g class="st9">
				<path class="st5" d="M253.56,450.51c-29.94-7.72-60.79-11.64-91.72-11.64c-30.93,0-61.78,3.91-91.72,11.64l-8.95-34
					c32.86-8.49,66.72-12.8,100.67-12.8s67.81,4.3,100.67,12.8L253.56,450.51z"/>
			</g>
			<g class="st9">
				<path class="st6" d="M161.84,405.59c33.17,0,66.25,4.13,98.39,12.27l-4.57,17.37l-3.43,13.02
					c-29.53-7.46-59.92-11.24-90.39-11.24s-60.86,3.78-90.39,11.24l-5.78-21.93l-2.23-8.46
					C95.59,409.72,128.67,405.59,161.84,405.59 M161.84,401.86c-34.61,0-69.21,4.44-102.95,13.33c3.3,12.53,6.6,25.07,9.9,37.6
					c30.5-8.03,61.77-12.05,93.05-12.05s62.56,4.02,93.05,12.05c3.3-12.53,6.6-25.07,9.9-37.6
					C231.05,406.3,196.45,401.86,161.84,401.86"/>
			</g>
		</g>
		<g class="st0">
			<polygon class="st6" points="276.9,28.81 259.68,58.64 294.12,58.64 			"/>
		</g>
		<g class="st0">
			<polygon points="276.9,38.16 271.54,58.64 282.26,58.64 			"/>
		</g>
		<g class="st0">
			<line x1="32.82" y1="33.31" x2="56.72" y2="57.22"/>
		</g>
		<g class="st0">
			<rect x="43.84" y="28.36" transform="matrix(0.7071 -0.7071 0.7071 0.7071 -18.8929 44.9136)" width="1.86" height="33.81"/>
		</g>
		<g class="st0">
			<defs>
				<rect id="SVGID_11_" width="323.68" height="472.66"/>
			</defs>
			<clipPath id="SVGID_12_">
				<use xlink:href="#SVGID_11_"  style="overflow:visible;"/>
			</clipPath>
			<g class="st10">
				<path class="st6" d="M44.1,28.99c-5.06,0-9.6,2.22-12.71,5.74c2.99-2.63,6.91-4.24,11.2-4.24c9.36,0,16.94,7.59,16.94,16.94
					c0,4.29-1.6,8.21-4.24,11.2c3.52-3.1,5.74-7.65,5.74-12.71C61.04,36.58,53.46,28.99,44.1,28.99"/>
			</g>
			<g class="st10">
				<path class="st6" d="M55.61,58.99l-0.66-0.66c2.66-3.01,4.12-6.88,4.12-10.89c0-9.08-7.39-16.48-16.48-16.48
					c-4.01,0-7.88,1.46-10.89,4.12l-0.66-0.66c3.31-3.75,8.07-5.9,13.06-5.9c9.6,0,17.41,7.81,17.41,17.41
					C61.51,50.92,59.36,55.68,55.61,58.99z M42.59,30.03c9.6,0,17.41,7.81,17.41,17.41c0,1.62-0.22,3.21-0.66,4.74
					c0.81-1.96,1.24-4.08,1.24-6.25c0-9.08-7.39-16.48-16.48-16.48c-2.17,0-4.29,0.43-6.25,1.23
					C39.38,30.26,40.97,30.03,42.59,30.03z"/>
			</g>
			<g class="st10">
				<polygon points="59.21,30.71 60.9,30.99 47.64,42.47 47.89,42.75 61.15,31.27 61.18,32.99 63.7,28.81 				"/>
			</g>
			<g class="st10">
				<polygon points="47.82,44.04 46.3,42.39 58.79,31.58 55.87,31.1 65.98,26.84 60.32,36.23 60.26,33.27 				"/>
			</g>
			<g class="st10">
				<polygon class="st6" points="47.53,42.56 45.89,42.6 42.63,45.42 44.38,45.53 44.25,47.29 47.51,44.46 47.78,42.85 47.89,42.75 
					47.64,42.47 				"/>
			</g>
			<g class="st10">
				<path class="st6" d="M43.14,49.48l0.24-3.08l-3.08-0.2l5.23-4.52l1.64-0.04l0.54-0.46l1.51,1.65l-0.58,0.51l-0.27,1.62
					L43.14,49.48z M44.96,44.64l0.43,0.03l-0.03,0.43l1.29-1.12l0.08-0.47l-0.47,0.01L44.96,44.64z"/>
			</g>
			<g class="st10">
				<rect x="104.07" y="20.58" transform="matrix(0.6442 -0.7648 0.7648 0.6442 3.9144 95.8689)" width="1.86" height="46.3"/>
			</g>
			<g class="st10">
				<rect x="81.86" y="42.79" transform="matrix(0.7648 -0.6443 0.6443 0.7648 -3.4732 77.9405)" width="46.3" height="1.86"/>
			</g>
			<g class="st10">
				<path class="st6" d="M121.31,34.81l-4.16,3.5c-0.69,0.58-1.74,0.49-2.32-0.2l-3.5-4.16c-0.58-0.69-0.49-1.74,0.2-2.32l4.16-3.5
					c0.69-0.58,1.74-0.49,2.32,0.2l3.5,4.16C122.09,33.18,122,34.23,121.31,34.81"/>
			</g>
			<g class="st10">
				<path class="st5" d="M120.12,33.4l-4.16,3.5c-0.69,0.58-1.74,0.49-2.32-0.2l-2.31-2.75c-0.58-0.69-0.49-1.74,0.2-2.32l4.16-3.5
					c0.69-0.58,1.74-0.49,2.32,0.2l2.31,2.75C120.9,31.77,120.81,32.82,120.12,33.4"/>
			</g>
			<g class="st10">
				<path class="st6" d="M91.77,38.31l-4.14-3.53c-0.69-0.59-0.77-1.63-0.18-2.32l3.53-4.14c0.59-0.69,1.63-0.77,2.32-0.18
					l4.14,3.53c0.69,0.59,0.77,1.63,0.18,2.32l-3.53,4.14C93.5,38.82,92.46,38.9,91.77,38.31"/>
			</g>
			<g class="st10">
				<path class="st5" d="M92.97,36.91l-4.14-3.53c-0.69-0.59-0.77-1.63-0.18-2.32l2.33-2.73c0.59-0.69,1.63-0.77,2.32-0.18
					l4.14,3.53c0.69,0.59,0.77,1.63,0.18,2.32l-2.33,2.73C94.71,37.41,93.66,37.49,92.97,36.91"/>
			</g>
			<g class="st10">
				<path d="M161.32,62.41c-1.64-0.98-2.96-2.24-3.8-3.63l-0.39-0.66l0.41-0.64c0.79-1.24,1.73-3.7,1.73-4.52V52.7l1.16,0.07
					c0.64,0.04,1.18,0.09,1.2,0.11c0.02,0.02,0.08,0.94,0.14,2.06c0.09,1.92,0.27,3.65,0.39,3.76c0.22,0.22,0.36-0.73,0.52-3.56
					c0.07-1.25,0.14-2.28,0.14-2.28c0.01-0.01,0.53-0.05,1.16-0.09l1.14-0.08l0.14,0.76c0.2,1.07,0.83,2.65,1.49,3.75l0.56,0.93
					l-0.25,0.43c-0.79,1.37-2.26,2.84-3.68,3.69c-0.49,0.29-0.97,0.56-1.06,0.6C162.24,62.89,161.78,62.69,161.32,62.41"/>
			</g>
			<g class="st10">
				<path d="M153.93,57.93c-0.93-0.2-1.8-0.89-2.25-1.77c-0.19-0.38-0.5-1.31-0.44-1.3c0.01,0,0.27,0.08,0.58,0.17
					c0.76,0.23,1.3,0.21,2.04-0.06c0.84-0.31,1.55-1.1,1.84-2.03c0.13-0.41,0.27-0.67,0.34-0.64c0.07,0.03,0.65,0.11,1.28,0.19
					c1.33,0.16,1.31,0.12,0.91,1.43C157.36,56.73,155.68,58.31,153.93,57.93"/>
			</g>
			<g class="st10">
				<path d="M169.04,57.79c-0.65-0.19-1.72-1.37-2.26-2.48c-0.42-0.87-0.82-2.1-0.82-2.52c0-0.12,0.31-0.2,1.16-0.31
					c0.64-0.08,1.22-0.17,1.28-0.2c0.07-0.02,0.18,0.18,0.25,0.45c0.2,0.74,0.81,1.56,1.44,1.95c0.51,0.31,0.65,0.34,1.53,0.34
					c0.54,0,1.1-0.04,1.24-0.1c0.26-0.09,0.27-0.08,0.19,0.34c-0.18,0.98-0.85,1.84-1.79,2.31
					C170.53,57.94,169.81,58.01,169.04,57.79"/>
			</g>
			<g class="st10">
				<path d="M167.05,49.44c-1.85-0.29-7.99-0.29-9.75,0.01c-1.24,0.21-2.37,0.54-2.65,0.77c-0.26,0.21-0.18,0.54,0.18,0.72
					c0.68,0.35,2.17,0.63,4.88,0.89c0.91,0.09,3.91,0.07,5.33-0.04c2.7-0.2,4.62-0.65,4.88-1.13
					C170.18,50.19,169.22,49.78,167.05,49.44 M167.42,50.89c-1.34,0.16-7.59,0.24-9.17,0.11c-1.46-0.12-2.71-0.33-2.79-0.46
					c-0.14-0.22,1.25-0.41,4.23-0.58c3.41-0.19,8.5,0.07,9.21,0.47C169.17,50.58,168.68,50.73,167.42,50.89"/>
			</g>
			<g class="st10">
				<path d="M147.03,48.85c-2.31-0.8-3.91-3.38-3.73-6.03c0.12-1.71,0.7-3.01,1.88-4.21c1.66-1.68,4.08-2.22,6.38-1.41
					c2.52,0.88,4.8,3.59,6.09,7.25c0.39,1.09,0.81,3,0.81,3.64c0,0.4-0.01,0.41-0.48,0.41c-0.26,0-0.89,0.07-1.39,0.16
					c-0.5,0.08-0.91,0.14-0.91,0.14c0-0.01-0.15-0.39-0.32-0.84c-0.78-2.02-2.32-3.25-3.8-3.03c-1.59,0.23-2.52,1.41-2.55,3.21
					l-0.01,0.94l-0.68,0C147.94,49.06,147.36,48.97,147.03,48.85"/>
			</g>
			<g class="st10">
				<path class="st6" d="M147.91,43.41l0.33-0.66l0.69,0.11c0.38,0.06,0.73,0.08,0.77,0.03c0.04-0.04-0.16-0.31-0.46-0.59
					l-0.54-0.51l0.34-0.68c0.19-0.37,0.29-0.68,0.23-0.68c-0.06,0-0.4,0.14-0.74,0.31l-0.63,0.31l-0.58-0.56l-0.58-0.56l0.07,0.54
					c0.04,0.3,0.1,0.66,0.14,0.8c0.06,0.23-0.02,0.31-0.56,0.59c-0.35,0.18-0.63,0.37-0.63,0.41c0,0.08,0.18,0.12,1.04,0.26
					l0.42,0.07l0.08,0.73c0.04,0.4,0.12,0.73,0.18,0.73C147.53,44.07,147.72,43.78,147.91,43.41"/>
			</g>
			<g class="st10">
				<path d="M175.44,48.14c0-1.5-0.48-2.35-1.64-2.95c-0.69-0.36-1.79-0.36-2.48,0c-0.94,0.49-1.96,1.85-2.35,3.13
					c-0.08,0.25-0.19,0.45-0.26,0.43c-0.06-0.01-0.71-0.09-1.43-0.16c-1.52-0.16-1.42-0.01-1.14-1.64c0.21-1.23,0.8-3.01,1.4-4.27
					c1.37-2.87,3.45-4.92,5.66-5.59c3.15-0.96,6.53,0.81,7.65,4c0.3,0.85,0.41,2.62,0.22,3.45c-0.58,2.5-2.55,4.38-4.75,4.5
					l-0.88,0.05L175.44,48.14z"/>
			</g>
			<g class="st10">
				<path class="st6" d="M177.14,43.47c0.04-0.33,0.11-0.67,0.16-0.74c0.05-0.07,0.38-0.18,0.74-0.24c0.36-0.06,0.68-0.13,0.71-0.16
					c0.03-0.03-0.25-0.22-0.62-0.43l-0.66-0.38l0.08-0.45c0.05-0.25,0.09-0.61,0.09-0.79l0.01-0.34l-0.57,0.56l-0.57,0.56
					l-0.62-0.33c-0.34-0.18-0.65-0.3-0.69-0.26c-0.04,0.04,0.07,0.36,0.24,0.71l0.31,0.65l-0.55,0.56l-0.55,0.56l0.82-0.08
					l0.82-0.08l0.31,0.64c0.17,0.35,0.35,0.64,0.39,0.64C177.03,44.07,177.1,43.8,177.14,43.47"/>
			</g>
			<g class="st10">
				<path d="M159.27,47.51c-0.24-1.5-0.87-3.33-2.11-6.18c-1.29-2.94-1.66-4.07-1.87-5.56c-0.32-2.32,0.58-4.9,2.38-6.84
					c0.28-0.3,1.13-1.04,1.88-1.64c0.75-0.6,1.66-1.36,2.01-1.7l0.65-0.62l0.6,0.56c0.33,0.31,1.21,1.05,1.96,1.65
					c2.16,1.73,3.13,2.87,3.81,4.49c1.11,2.66,0.86,4.84-1.04,9.09c-1.47,3.29-2,4.77-2.3,6.53c-0.1,0.56-0.19,1.02-0.2,1.02
					c-0.01,0-0.52-0.01-1.12-0.03l-1.09-0.04l-0.08-5.7c-0.04-3.13-0.1-5.82-0.12-5.98c-0.03-0.16-0.08-1.13-0.12-2.16
					c-0.08-2.04-0.19-3.77-0.24-3.72c-0.09,0.09-0.17,0.9-0.27,2.81c-0.19,3.69-0.23,4.95-0.31,9.9l-0.08,4.85h-0.94
					c-0.52,0-1.01,0.03-1.1,0.06C159.45,48.38,159.38,48.2,159.27,47.51"/>
			</g>
			<g class="st10">
				<rect x="217.7" y="37.9" transform="matrix(0.368 -0.9298 0.9298 0.368 90.6395 236.8681)" width="3.73" height="27.72"/>
			</g>
			<g class="st10">
				<rect x="205.7" y="49.9" transform="matrix(0.9298 -0.368 0.368 0.9298 -3.6382 84.442)" width="27.72" height="3.73"/>
			</g>
			<g class="st10">
				<path class="st6" d="M220.1,23.52l0.75,0.57c0.2,0.16,0.39,0.32,0.58,0.49c0.1,0.08,0.19,0.17,0.28,0.26l0.27,0.26
					c0.18,0.18,0.35,0.37,0.52,0.56c0.32,0.39,0.64,0.79,0.89,1.24c0.14,0.22,0.23,0.46,0.34,0.69c0.09,0.24,0.19,0.48,0.24,0.73
					c0.13,0.5,0.19,1.02,0.16,1.54c-0.03,0.52-0.14,1.03-0.31,1.52c-0.17,0.49-0.39,0.96-0.65,1.4c-0.26,0.44-0.55,0.86-0.86,1.27
					c-0.31,0.41-0.63,0.8-0.96,1.18l-0.49,0.57l-0.24,0.28l-0.12,0.15l-0.06,0.07l-0.03,0.03l-0.03,0.04
					c-0.15,0.19-0.27,0.39-0.38,0.6c-0.1,0.21-0.18,0.42-0.23,0.64c-0.09,0.44-0.04,0.89,0.18,1.27c0.22,0.37,0.59,0.66,1,0.76
					c0.21,0.06,0.42,0.06,0.62,0.02c0.05-0.01,0.09-0.02,0.14-0.04l0.09-0.03l0.04-0.02c0.01-0.01-0.01,0-0.01,0l0,0l0.01,0
					l0.02-0.01c0.09-0.04,0.18-0.1,0.25-0.16c0.3-0.26,0.43-0.7,0.44-1.16c0.01-0.23-0.01-0.47-0.05-0.7
					c-0.02-0.12-0.04-0.23-0.07-0.35c-0.03-0.11-0.06-0.24-0.09-0.34l-0.22-0.67l0.61,0.34c0.85,0.47,1.63,1.09,2.24,1.87
					c0.04,0.05,0.07,0.1,0.11,0.15l0.1,0.15c0.07,0.1,0.14,0.2,0.2,0.31l0.18,0.32l0.15,0.34c0.06,0.11,0.09,0.23,0.13,0.35
					c0.04,0.12,0.08,0.23,0.11,0.35l0.09,0.36l0.06,0.37c0.06,0.49,0.07,0.98,0.01,1.47c-0.06,0.49-0.18,0.96-0.35,1.42
					c-0.17,0.46-0.39,0.89-0.65,1.31c-0.26,0.41-0.57,0.79-0.91,1.14c-0.34,0.34-0.72,0.66-1.15,0.91
					c-0.42,0.25-0.88,0.44-1.36,0.56c-0.12,0.03-0.25,0.06-0.37,0.07L221.2,48l-0.09,0.01l-0.02,0c0,0-0.03,0-0.02,0h-0.01l-0.04,0
					c-0.12,0-0.24,0.01-0.37,0.01l-0.37-0.01c-0.49-0.03-0.97-0.13-1.43-0.29c-0.92-0.32-1.75-0.87-2.43-1.56
					c-0.68-0.69-1.21-1.51-1.59-2.39c-0.38-0.88-0.61-1.82-0.7-2.78c-0.04-0.48-0.04-0.96-0.01-1.44c0.01-0.12,0.02-0.24,0.03-0.36
					l0.02-0.18l0.01-0.09l0-0.02l0-0.03l0.01-0.04l0.06-0.35c0.03-0.12,0.06-0.23,0.08-0.35c0.12-0.46,0.29-0.92,0.49-1.35
					c0.2-0.43,0.43-0.85,0.69-1.25c0.25-0.4,0.53-0.79,0.82-1.16c0.29-0.37,0.59-0.74,0.91-1.09c0.62-0.71,1.28-1.39,1.92-2.08
					c0.32-0.35,0.63-0.7,0.92-1.06c0.29-0.37,0.57-0.75,0.78-1.16c0.21-0.41,0.33-0.87,0.39-1.33c0.06-0.46,0.05-0.93-0.02-1.4
					c-0.07-0.46-0.2-0.92-0.38-1.35c-0.18-0.43-0.4-0.85-0.67-1.23L220.1,23.52z"/>
			</g>
		</g>
	</g>
</g>
<g>
	<path d="M111.88,412.77c-0.26,0.05-0.37-0.12-0.79-0.05c-0.68,0.12-1.36,0.54-2.06,1.17c1.71,0.67,2.6,1.87,2.85,3.31
		c0.74,4.22-3.97,6.18-4.15,6.24c0.17,0.05,1.78,1.07,2.17,3.32c0.73,4.14-2.03,7.65-6.15,8.37c-2.49,0.44-4.37-1.18-4.66-2.88
		c-0.1-0.55-0.09-1.15,0.02-1.71c-1.99,2.97-4.56,5.58-7.75,6.14c-3.27,0.57-5.6-1.45-6.17-4.72c-0.64-3.64,1.76-8.76,6.06-9.51
		c0.42-0.07,0.82-0.09,1.21-0.05c-0.47-2.97,2.57-7.5,9.54-8.72c1.86-0.33,3.39-0.4,4.67-0.31c1.03-0.75,2.1-1.29,3.17-1.47
		c1.36-0.24,2.41,0.04,2.46,0.35C112.36,412.58,112.14,412.73,111.88,412.77z M102.54,414.92c-5.82,1.02-8.86,4.47-8.43,6.91
		c0.13,0.76,0.56,1.17,1.37,1.03c1.91-0.33,2.92-3.7,3.29-5.09c0.1-0.37,0.16-0.62,0.19-0.63c0.13-0.02,0.16,0,0.19,0.16
		c0.59,3.35-0.11,7.07-3.24,7.56l-0.08,0.01c0.1,0.25,0.17,0.54,0.23,0.82c0.46,2.59-1.74,5.76-4.81,6.3
		c-0.71,0.12-1.27,0.01-1.29-0.12c-0.05-0.26,0.53-0.2,1.01-0.56c1.12-0.84,2.89-2.94,2.47-5.32c-0.21-1.18-1.31-1.9-2.62-1.67
		c-2.28,0.4-4.41,3.99-3.85,7.16c0.37,2.12,1.8,3.65,3.77,3.31c3.38-0.59,6.55-6.71,8.75-11.58c1.32-2.93,3.34-6.2,5.64-8.5
		C104.31,414.69,103.43,414.77,102.54,414.92z M102.69,424.57c-0.13,0.02-0.24,0.04-0.35,0.03c-0.41,0.91-0.89,1.88-1.41,2.87
		c0.57-0.42,1.24-0.76,1.98-0.89c1.1-0.19,2.05,0.15,2.23,1.15c0.02,0.1,0,0.16-0.05,0.17c-0.13,0.02-0.45-0.08-1,0.01
		c-1.68,0.29-3.21,2.02-2.94,3.57c0.17,1,1.12,1.61,2.12,1.44c1.68-0.29,3.51-2.94,2.95-6.11
		C105.85,424.74,104.68,424.22,102.69,424.57z M107.71,415.31c-1.76,2.14-3.46,5.22-4.72,7.9c3.71-0.73,6.52-3.3,6.01-6.21
		C108.87,416.24,108.4,415.68,107.71,415.31z"/>
	<path d="M115.68,432.77c-1.79,0.24-3.43-1.4-3.71-3.56c-0.44-3.35,2.73-9.88,6.26-10.34c0.95-0.12,1.41-0.48,1.97-0.55
		c0.84-0.11,1.76,0.76,1.9,1.79c0.26,1.98-2.22,5.79-6.46,6.35c-0.08,0.01-0.16,0.02-0.24,0c-0.24,0.84-0.35,1.6-0.27,2.23
		c0.15,1.16,0.67,1.84,1.65,1.71c3.51-0.46,5.72-6.06,6.04-6.1c0.29-0.04,0.38,0.43,0.43,0.83
		C123.36,426.07,120.06,432.19,115.68,432.77z M119.61,419.94c-0.92,0.12-2.71,2.61-3.73,5.1c2.02-0.72,4.46-3.21,4.26-4.72
		C120.1,420.04,119.92,419.9,119.61,419.94z"/>
	<path d="M146.37,423.02l-0.05,0c-2.1,3.94-4.81,7.14-8.93,7.39c-4.65,0.28-7.1-2.79-7.3-6.11c-0.21-3.53,1.9-7.36,6.46-7.64
		c1.09-0.07,1.98,0.2,2.7,0.63c-0.15-0.26-0.22-0.55-0.24-0.86c-0.26-4.27,5.7-7.46,11.46-7.81c0.32-0.02,0.67-0.01,0.99-0.01
		c1.07-0.79,2.24-1.31,3.46-1.38c1.62-0.1,2.86,0.57,2.88,0.84c0.01,0.11-0.07,0.14-0.23,0.15c-0.24,0.01-0.64-0.01-1.07,0.01
		c-0.85,0.05-1.63,0.34-2.32,0.81c2.8,0.84,4.39,2.93,4.53,5.24C158.94,418.07,155.21,422.49,146.37,423.02z M149.73,409.92
		c-3.85,0.21-8.71,2.61-8.54,5.42c0.03,0.45,0.4,0.8,1.01,0.76c1.04-0.06,1.53-1.13,1.49-1.72c-0.02-0.34,0.05-0.46,0.18-0.46
		c0.16-0.01,0.27,0.12,0.29,0.44c0.16,2.63-1.41,3.9-2.85,3.98c-0.37,0.02-0.75-0.04-1.08-0.15c0.63,0.76,0.99,1.78,1.05,2.81
		c0.15,2.42-1.19,4.98-3.76,5.13c-0.61,0.04-1.1-0.12-1.11-0.28c-0.01-0.13,0.37-0.13,1.05-0.62c0.46-0.37,1.79-2.11,1.64-4.52
		c-0.1-1.59-1.19-2.96-2.92-2.86c-2.73,0.17-4.1,3.18-3.93,5.89c0.14,2.31,1.73,4.37,4.36,4.21c4.43-0.27,6.64-6.85,8.5-10.88
		c1.09-2.3,2.75-5.12,4.79-7.14L149.73,409.92z M152.77,410.32c-1.69,2-3.04,5.17-4.51,8.62c-0.33,0.79-0.68,1.59-1.06,2.36
		c5.83-0.49,8.31-4.42,8.12-7.53C155.23,412.25,154.41,410.97,152.77,410.32z"/>
	<path d="M162.54,429.28c-1.68,0.01-2.98-0.97-2.99-2.88c-0.01-2.61,3.55-7.41,3.55-7.49c0-0.05-0.88-0.42-1.33-0.42
		c-0.11,0-0.19,0.03-0.21,0.08c-1.29,2.13-2.59,4.08-3.51,5.42c-0.08,0.13-0.19,0.21-0.29,0.21c-0.24,0-0.4-0.32-0.4-0.8
		c0-0.19,0.16-0.45,0.24-0.59c0.34-0.51,1.03-1.55,1.74-3.07c0.79-1.6,0.94-2.74,1.44-3.94c0.53-1.33,0.92-1.6,1.8-1.61
		c0.4,0,0.61,0.24,0.61,0.69c0,0.53-0.26,0.75-0.26,0.83c0,0.11,0.16,0.19,0.59,0.18c1.25-0.01,2.74-0.23,3.11-0.23
		c0.74,0,1.74,1.45,1.74,2.07c0,0.48-0.82,0.91-1.4,1.58c-1,1.1-3.72,4.97-3.71,7.04c0,0.19,0.11,0.4,0.37,0.4
		c0.67,0,1.86-1.05,2.75-2.17c1-1.23,1.85-2.56,1.98-2.56c0.24,0,0.35,0.48,0.35,0.96C168.71,423.48,164.85,429.27,162.54,429.28z"
		/>
	<path d="M170.65,429.57c-1.81-0.06-3.15-1.95-3.08-4.13c0.12-3.38,4.32-9.3,7.88-9.17c0.96,0.03,1.47-0.24,2.03-0.22
		c0.85,0.03,1.61,1.04,1.58,2.08c-0.07,1.99-3.14,5.35-7.42,5.2c-0.08,0-0.16-0.01-0.24-0.04c-0.37,0.79-0.61,1.52-0.63,2.16
		c-0.04,1.17,0.36,1.93,1.34,1.96c3.54,0.12,6.64-5.04,6.96-5.03c0.29,0.01,0.3,0.49,0.29,0.89
		C179.33,424.23,175.06,429.73,170.65,429.57z M176.64,417.57c-0.93-0.03-3.11,2.13-4.52,4.42c2.12-0.38,4.93-2.44,4.98-3.95
		C177.11,417.74,176.95,417.58,176.64,417.57z"/>
	<path d="M182.47,430.09c-1.22-0.08-2.37-1.21-2.8-2.35c-2.76,4.77-4.97,8.27-5.85,8.21c-0.58-0.04-1.47-1.04-1.43-1.73
		c0.05-0.72,2.41-4.42,5.54-9.48c3.15-5.06,5.43-9.06,6.04-9.02c0.85,0.06,1.82,0.61,1.8,1c-0.02,0.24-0.21,0.71-0.58,1.4
		c1.17-0.75,2.44-1.38,3.58-1.3c1.59,0.11,2.37,1.21,2.23,3.25C190.73,424.03,186.13,430.35,182.47,430.09z M187.24,418.53
		c-0.69-0.05-2.09,0.87-3.27,1.75c-0.7,1.26-1.64,2.85-2.76,4.79c0.18,1.27,0.63,2.5,1.32,2.54c1.46,0.1,5.33-6.51,5.44-8.1
		C188.01,418.99,187.78,418.57,187.24,418.53z"/>
	<path d="M199.31,431.36c-1.85-0.2-2.04-2.44-2.12-2.44c-0.08-0.01-2.27,2.22-4.46,1.99c-1.45-0.15-2.76-1.49-2.51-3.85
		c0.41-3.89,5.66-9.54,10-9.08c2.14,0.23,2.13,2.07,2.21,2.08c0.13,0.01,1.71-1.56,2.19-1.51c0.48,0.05,0.44,0.13,0.75,0.24
		c0.26,0.08,0.65,0.18,0.61,0.55c-0.15,1.45-5.5,7.52-5.67,9.16c-0.03,0.26,0.08,0.46,0.35,0.49c1.69,0.18,4.96-4.21,5.23-4.18
		c0.24,0.02,0.3,0.49,0.24,0.99C206.08,426.3,201.61,431.6,199.31,431.36z M199.67,419.39c-2.14-0.23-5.82,4.97-6.09,7.57
		c-0.09,0.85,0.15,1.35,0.68,1.41c0.69,0.07,2.67-1,2.73-1.5c0.02-0.21-0.53-0.32-0.74-0.35l0.02-0.21
		c0.71-0.11,4.08-2.91,4.33-5.34C200.68,420.14,200.3,419.46,199.67,419.39z"/>
	<path d="M209.39,432.77c-1.66-0.23-2.82-1.38-2.56-3.28c0.35-2.58,4.56-6.84,4.57-6.92c0.01-0.05-0.81-0.54-1.26-0.6
		c-0.1-0.01-0.19,0-0.22,0.05c-1.58,1.93-3.13,3.68-4.24,4.87c-0.1,0.12-0.21,0.19-0.32,0.17c-0.24-0.03-0.35-0.37-0.29-0.84
		c0.02-0.18,0.22-0.43,0.32-0.55c0.41-0.45,1.24-1.39,2.15-2.79c1.01-1.47,1.32-2.58,1.98-3.7c0.71-1.25,1.14-1.46,2.01-1.34
		c0.39,0.05,0.57,0.32,0.51,0.77c-0.07,0.53-0.36,0.7-0.38,0.78c-0.01,0.11,0.13,0.21,0.55,0.26c1.24,0.17,2.74,0.16,3.11,0.21
		c0.74,0.1,1.51,1.68,1.43,2.29c-0.06,0.47-0.94,0.79-1.61,1.36c-1.15,0.94-4.38,4.39-4.67,6.45c-0.03,0.18,0.05,0.41,0.32,0.45
		c0.66,0.09,1.98-0.78,3.03-1.76c1.17-1.08,2.19-2.28,2.32-2.26c0.24,0.03,0.28,0.52,0.21,1
		C216.31,427.89,211.69,433.08,209.39,432.77z"/>
	<path d="M217.33,434.11c-1.79-0.29-2.88-2.32-2.54-4.48c0.54-3.33,5.44-8.68,8.96-8.11c0.95,0.15,1.49-0.06,2.04,0.03
		c0.84,0.14,1.47,1.23,1.3,2.26c-0.32,1.97-3.78,4.91-8.01,4.23c-0.08-0.01-0.16-0.03-0.23-0.06c-0.47,0.73-0.8,1.43-0.9,2.06
		c-0.19,1.15,0.11,1.96,1.09,2.11c3.49,0.56,7.22-4.17,7.53-4.12c0.29,0.05,0.24,0.52,0.17,0.92
		C226.6,429.89,221.69,434.81,217.33,434.11z M224.76,422.94c-0.92-0.15-3.35,1.72-5.03,3.82c2.15-0.11,5.19-1.8,5.43-3.3
		C225.21,423.18,225.08,423,224.76,422.94z"/>
	<path d="M234.85,433.93c-0.05,0.26,0.05,0.47,0.31,0.52c1.67,0.32,5.3-3.78,5.53-3.74c0.26,0.05,0.28,0.51,0.19,1.01
		c-0.1,0.5-4.99,5.41-7.29,4.97c-1.67-0.32-2.35-1.72-2.41-2.71c-0.47,0.5-2.37,2.04-4.04,1.72c-1.44-0.27-2.62-1.72-2.18-4.04
		c0.73-3.84,6.44-9.03,10.72-8.21c1.49,0.28,1.5,1.91,1.48,2.15c0.95-1.12,5.54-7.44,6.06-7.34c1.04,0.2,1.52,1.54,1.36,2.4
		C244.39,421.67,235.26,431.78,234.85,433.93z M234.87,424.91c-2.22-0.42-6.09,4.55-6.57,7.06c-0.14,0.73,0.04,1.23,0.58,1.33
		c1.49,0.29,6.56-5.73,6.69-6.38C235.82,425.58,235.39,425.01,234.87,424.91z"/>
</g>
</svg>
